<svg xmlns="http://www.w3.org/2000/svg" width="1400" height="760" viewBox="0 0 1400 760">
  <rect width="1400" height="760" fill="#d9eef2"/>
  <path d="M0 520c170-72 342-86 516-42 184 47 346 45 486-6 142-52 275-49 398 9v279H0z" fill="#b9e6df"/>
  <circle cx="1080" cy="250" r="150" fill="#ffffff" opacity=".72"/>
  <rect x="885" y="210" width="390" height="250" rx="42" fill="#ffffff"/>
  <circle cx="980" cy="305" r="54" fill="#ffd7ba"/>
  <path d="M915 430c30-62 73-93 129-93 58 0 103 31 135 93" fill="#008296"/>
  <path d="M1132 286h34v-34h44v34h34v44h-34v34h-44v-34h-34z" fill="#20b969"/>
  <rect x="780" y="500" width="390" height="36" rx="18" fill="#ffffff" opacity=".7"/>
  <rect x="812" y="558" width="260" height="28" rx="14" fill="#ffffff" opacity=".55"/>
</svg>
